HIERARCHY
ROOT Hips
{
  OFFSET 5.72205e-005 65.662 3.42586
  CHANNELS 6 Xposition Yposition Zposition Zrotation Xrotation Yrotation
  JOINT Chest
  {
    OFFSET 0 8.7983 -4.7612
    CHANNELS 3 Zrotation Xrotation Yrotation
    JOINT Chest2
    {
      OFFSET 0 8.0291 0.4195
      CHANNELS 3 Zrotation Xrotation Yrotation
      JOINT Chest3
      {
        OFFSET 0 9.9351 -2.2114
        CHANNELS 3 Zrotation Xrotation Yrotation
        JOINT Neck
        {
          OFFSET 0 22.3885 -0.4656
          CHANNELS 3 Zrotation Xrotation Yrotation
          JOINT Head
          {
            OFFSET -0.0001 12.643 3.4389
            CHANNELS 3 Zrotation Xrotation Yrotation
            End Site
            {
              OFFSET 0.0001 17.6655 0.5274
            }
          }
        }
        JOINT LeftCollar
        {
          OFFSET 2.2603 21.606 7.4023
          CHANNELS 3 Zrotation Xrotation Yrotation
          JOINT LeftShoulder
          {
            OFFSET 13.5163 -1.1332 -5.0146
            CHANNELS 3 Zrotation Xrotation Yrotation
            JOINT LeftElbow
            {
              OFFSET -0.0995 -28.05 -0.2431
              CHANNELS 3 Zrotation Xrotation Yrotation
              JOINT LeftWrist
              {
                OFFSET 0.0679 -23.3996 -0.1402
                CHANNELS 3 Zrotation Xrotation Yrotation
                JOINT LeftFinger1
                {
                  OFFSET 0.7932 -9.069 2.5189
                  CHANNELS 3 Zrotation Xrotation Yrotation
                  JOINT LeftFinger11
                  {
                    OFFSET -0.8272 -3.3923 0.5977
                    CHANNELS 3 Zrotation Xrotation Yrotation
                    JOINT LeftFinger12
                    {
                      OFFSET -0.5649 -2.3158 0.4082
                      CHANNELS 3 Zrotation Xrotation Yrotation
                      End Site
                      {
                        OFFSET -0.4919 -1.6479 0.2673
                      }
                    }
                  }
                }
                JOINT LeftFinger2
                {
                  OFFSET 0.9159 -9.2044 0.2193
                  CHANNELS 3 Zrotation Xrotation Yrotation
                  JOINT LeftFinger21
                  {
                    OFFSET 0.0117 -4.1944 -0.0248
                    CHANNELS 3 Zrotation Xrotation Yrotation
                    JOINT LeftFinger22
                    {
                      OFFSET 0.0071 -2.3249 -0.0142
                      CHANNELS 3 Zrotation Xrotation Yrotation
                      End Site
                      {
                        OFFSET -0.1475 -2.0882 0.0028
                      }
                    }
                  }
                }
                JOINT LeftFinger3
                {
                  OFFSET 0.6113 -8.7231 -2.0637
                  CHANNELS 3 Zrotation Xrotation Yrotation
                  JOINT LeftFinger31
                  {
                    OFFSET -0.1927 -3.8059 -0.2383
                    CHANNELS 3 Zrotation Xrotation Yrotation
                    JOINT LeftFinger32
                    {
                      OFFSET -0.1091 -2.1688 -0.1362
                      CHANNELS 3 Zrotation Xrotation Yrotation
                      End Site
                      {
                        OFFSET -0.2358 -1.9176 -0.0906
                      }
                    }
                  }
                }
                JOINT LeftFinger4
                {
                  OFFSET -0.6151 -8.0947 -3.5641
                  CHANNELS 3 Zrotation Xrotation Yrotation
                  JOINT LeftFinger41
                  {
                    OFFSET -0.4882 -2.341 -0.6462
                    CHANNELS 3 Zrotation Xrotation Yrotation
                    JOINT LeftFinger42
                    {
                      OFFSET -0.3575 -1.7167 -0.4742
                      CHANNELS 3 Zrotation Xrotation Yrotation
                      End Site
                      {
                        OFFSET -0.4187 -1.5237 -0.3496
                      }
                    }
                  }
                }
                JOINT LeftFinger0
                {
                  OFFSET -1.42 -1.8761 1.4223
                  CHANNELS 3 Zrotation Xrotation Yrotation
                  JOINT LeftFinger01
                  {
                    OFFSET -1.1471 -3.4929 2.6334
                    CHANNELS 3 Zrotation Xrotation Yrotation
                    JOINT LeftFinger02
                    {
                      OFFSET -0.823 -2.3 1.6571
                      CHANNELS 3 Zrotation Xrotation Yrotation
                      End Site
                      {
                        OFFSET -0.5822 -1.6914 1.1582
                      }
                    }
                  }
                }
              }
            }
          }
        }
        JOINT RightCollar
        {
          OFFSET -2.2603 21.606 7.4023
          CHANNELS 3 Zrotation Xrotation Yrotation
          JOINT RightShoulder
          {
            OFFSET -13.5187 -1.1334 -5.0155
            CHANNELS 3 Zrotation Xrotation Yrotation
            JOINT RightElbow
            {
              OFFSET 0.0994 -28.0499 -0.2431
              CHANNELS 3 Zrotation Xrotation Yrotation
              JOINT RightWrist
              {
                OFFSET -0.0679 -23.3996 -0.1402
                CHANNELS 3 Zrotation Xrotation Yrotation
                JOINT RightFinger1
                {
                  OFFSET -0.7932 -9.0691 2.5189
                  CHANNELS 3 Zrotation Xrotation Yrotation
                  JOINT RightFinger11
                  {
                    OFFSET 0.8272 -3.3923 0.5977
                    CHANNELS 3 Zrotation Xrotation Yrotation
                    JOINT RightFinger12
                    {
                      OFFSET 0.565 -2.3158 0.4082
                      CHANNELS 3 Zrotation Xrotation Yrotation
                      End Site
                      {
                        OFFSET 0.4919 -1.6479 0.2673
                      }
                    }
                  }
                }
                JOINT RightFinger2
                {
                  OFFSET -0.916 -9.2044 0.2193
                  CHANNELS 3 Zrotation Xrotation Yrotation
                  JOINT RightFinger21
                  {
                    OFFSET -0.0117 -4.1944 -0.0248
                    CHANNELS 3 Zrotation Xrotation Yrotation
                    JOINT RightFinger22
                    {
                      OFFSET -0.0071 -2.3249 -0.0142
                      CHANNELS 3 Zrotation Xrotation Yrotation
                      End Site
                      {
                        OFFSET 0.1475 -2.0882 0.0028
                      }
                    }
                  }
                }
                JOINT RightFinger3
                {
                  OFFSET -0.6113 -8.7231 -2.0637
                  CHANNELS 3 Zrotation Xrotation Yrotation
                  JOINT RightFinger31
                  {
                    OFFSET 0.1927 -3.8059 -0.2383
                    CHANNELS 3 Zrotation Xrotation Yrotation
                    JOINT RightFinger32
                    {
                      OFFSET 0.1091 -2.1688 -0.1362
                      CHANNELS 3 Zrotation Xrotation Yrotation
                      End Site
                      {
                        OFFSET 0.2358 -1.9176 -0.0906
                      }
                    }
                  }
                }
                JOINT RightFinger4
                {
                  OFFSET 0.6151 -8.0947 -3.564
                  CHANNELS 3 Zrotation Xrotation Yrotation
                  JOINT RightFinger41
                  {
                    OFFSET 0.4882 -2.341 -0.6462
                    CHANNELS 3 Zrotation Xrotation Yrotation
                    JOINT RightFinger42
                    {
                      OFFSET 0.3574 -1.7166 -0.4742
                      CHANNELS 3 Zrotation Xrotation Yrotation
                      End Site
                      {
                        OFFSET 0.4187 -1.5237 -0.3496
                      }
                    }
                  }
                }
                JOINT RightFinger0
                {
                  OFFSET 1.4199 -1.8761 1.4221
                  CHANNELS 3 Zrotation Xrotation Yrotation
                  JOINT RightFinger01
                  {
                    OFFSET 1.1472 -3.4929 2.6336
                    CHANNELS 3 Zrotation Xrotation Yrotation
                    JOINT RightFinger02
                    {
                      OFFSET 0.8229 -2.3 1.6571
                      CHANNELS 3 Zrotation Xrotation Yrotation
                      End Site
                      {
                        OFFSET 0.5822 -1.6914 1.1582
                      }
                    }
                  }
                }
              }
            }
          }
        }
      }
    }
  }
  JOINT RightHip
  {
    OFFSET -9.412 3.9771 -0.7758
    CHANNELS 3 Zrotation Xrotation Yrotation
    JOINT RightKnee
    {
      OFFSET -0.7531 -40.938 0
      CHANNELS 3 Zrotation Xrotation Yrotation
      JOINT RightAnkle
      {
        OFFSET 0 -40.1986 0
        CHANNELS 3 Zrotation Xrotation Yrotation
        JOINT RightToe
        {
          OFFSET 0 -4.4182 9.239
          CHANNELS 3 Zrotation Xrotation Yrotation
          End Site
          {
            OFFSET 0 0 6.1981
          }
        }
      }
    }
  }
  JOINT LeftHip
  {
    OFFSET 9.4119 3.9773 -0.7758
    CHANNELS 3 Zrotation Xrotation Yrotation
    JOINT LeftKnee
    {
      OFFSET 0.7532 -40.9383 0
      CHANNELS 3 Zrotation Xrotation Yrotation
      JOINT LeftAnkle
      {
        OFFSET 0 -40.1986 0
        CHANNELS 3 Zrotation Xrotation Yrotation
        JOINT LeftToe
        {
          OFFSET 0 -4.4182 9.239
          CHANNELS 3 Zrotation Xrotation Yrotation
          End Site
          {
            OFFSET 0 0 6.1981
          }
        }
      }
    }
  }
}
MOTION
Frames:	5
Frame Time:	0.0333333
-51.851 27.9791 14.4758 -6.894e-015 1.00189 180 -0.0248745 4.47823 -0.237777 -0.0311841 8.95653 -0.475789 -0.0311841 8.95655 -0.475791 -1.02883e-006 -10.4709 -3.53341e-006 5.21519e-008 1.37444 1.01069e-008 21.5658 -26.1669 -11.112 24.518 -57.8345 2.19964 -65.9746 -71.1647 -40.8788 -41.2713 -4.71518 0.360354 1.54112e-007 2.06591e-006 -2.6315e-006 4.77083e-015 0 6.36111e-015 9.32428e-007 -4.0871e-006 -4.98326e-006 1.54112e-007 2.06591e-006 -2.6315e-006 -0.012742 0.00231768 8.35997e-005 3.29841e-006 9.34165e-007 -4.39806e-007 1.54112e-007 2.06591e-006 -2.6315e-006 -0.016038 0.00299872 0.000856711 1.54857e-007 -4.69788e-006 -2.63152e-006 1.54112e-007 2.06591e-006 -2.6315e-006 -0.0126177 0.00313494 0.00283674 1.80394e-006 -2.34889e-006 -2.85146e-006 1.54112e-007 2.06591e-006 -2.6315e-006 4.77083e-015 0 6.36111e-015 9.32428e-007 -4.0871e-006 -4.98326e-006 -4.99564 -10.3103 11.9396 -37.3558 -49.3496 -10.9017 97.984 -72.6188 69.152 47.1771 -9.28753 -19.1162 -1.59028e-015 2.38542e-015 -1.59028e-015 1.59028e-015 2.38542e-015 -1.59028e-015 -5.42893e-006 -4.53094e-005 2.4582e-006 -1.59028e-015 2.38542e-015 -1.59028e-015 0.0129795 0.0023003 -8.748e-005 -1.59028e-015 1.88845e-014 -0 -1.59028e-015 2.38542e-015 -1.59028e-015 0.0163239 0.00299989 -0.00086972 1.59028e-015 -7.95139e-016 -3.18055e-015 -1.59028e-015 2.38542e-015 -1.59028e-015 0.0145828 0.00362675 -0.00326285 -3.18055e-015 7.35503e-015 -1.59028e-015 -1.59028e-015 2.38542e-015 -1.59028e-015 1.59028e-015 2.38542e-015 -1.59028e-015 -5.42893e-006 -4.53094e-005 2.4582e-006 -11.167 -5.15912 -13.7514 -169.736 69.4795 169.741 -2.214 26.8246 -5.34925 2.99539e-006 -3.08345e-006 3.99503e-007 13.1143 -5.32026 13.0729 169.703 69.5024 -169.72 2.62612 27.3319 3.05178 3.2024e-007 -2.42e-008 2.79781e-007 
-51.8512 27.7435 14.6502 -6.894e-015 1.00189 180 -0.0248745 4.47823 -0.237777 -0.0311841 8.95653 -0.475789 -0.0311842 8.95656 -0.47579 -1.13929e-006 -11.0672 -3.45901e-006 -7.85998e-008 0.580016 -1.43379e-008 21.5658 -26.1669 -11.112 24.518 -57.8345 2.19965 -65.9747 -71.1647 -40.8788 -41.2713 -4.71518 0.360376 1.86485e-006 1.45019e-006 -9.96652e-006 -1.54111e-007 -3.36326e-006 2.6315e-006 1.80339e-006 1.67719e-006 -2.85147e-006 1.86485e-006 1.45019e-006 -9.96652e-006 -0.0127436 0.00230684 8.38216e-005 1.64921e-006 2.69676e-006 -2.19903e-007 1.86485e-006 1.45019e-006 -9.96652e-006 -0.0160325 0.00298873 0.000863449 -5.50941e-006 5.32226e-006 -6.73521e-006 1.86485e-006 1.45019e-006 -9.96652e-006 -0.0126094 0.00312612 0.00283564 -7.31351e-006 1.08616e-005 -3.88387e-006 1.86485e-006 1.45019e-006 -9.96652e-006 -1.54111e-007 -3.36326e-006 2.6315e-006 1.80339e-006 1.67719e-006 -2.85147e-006 -4.99565 -10.3103 11.9396 -37.3558 -49.3496 -10.9017 97.9841 -72.6188 69.1521 47.177 -9.28757 -19.1162 -1.59028e-015 -3.18055e-015 1.59028e-015 7.72434e-032 -2.78299e-015 1.59028e-015 -0 -7.95139e-016 -0 -1.59028e-015 -3.18055e-015 1.59028e-015 0.0129637 0.00233948 -8.53641e-005 3.18055e-015 -5.96354e-016 -1.59028e-015 -1.59028e-015 -3.18055e-015 1.59028e-015 0.0163545 0.00303905 -0.000871417 3.18055e-015 -7.95139e-016 -1.59028e-015 -1.59028e-015 -3.18055e-015 1.59028e-015 0.0145478 0.00367038 -0.00325302 3.14491e-031 -3.77691e-015 4.77083e-015 -1.59028e-015 -3.18055e-015 1.59028e-015 7.72434e-032 -2.78299e-015 1.59028e-015 -0 -7.95139e-016 -0 -11.2227 -5.46354 -13.8375 -169.871 68.9634 169.84 -2.204 26.7927 -5.37044 7.95139e-016 3.18055e-015 7.95139e-016 13.1523 -5.62912 13.1309 169.841 68.9887 -169.821 2.61593 27.3006 3.07294 0 0 -3.97569e-016 
-51.8514 27.533 14.806 -6.894e-015 1.00189 180 -0.0248745 4.47823 -0.237777 -0.0311841 8.95653 -0.475789 -0.0311842 8.95656 -0.47579 -1.10823e-006 -11.6001 -3.65837e-006 5.03472e-008 -0.130124 6.58085e-007 21.5658 -26.1669 -11.112 24.518 -57.8345 2.19965 -65.9746 -71.1647 -40.8788 -41.2713 -4.71517 0.360385 -1.59028e-015 4.77083e-015 3.18055e-015 3.36003e-006 1.77588e-006 -7.55499e-006 -1.59028e-015 -3.18055e-015 3.18055e-015 -1.59028e-015 4.77083e-015 3.18055e-015 -0.01277 0.00232054 7.57399e-005 5.57068e-006 -9.47624e-006 -3.79935e-007 -1.59028e-015 4.77083e-015 3.18055e-015 -0.0160307 0.0029821 0.000848995 8.71561e-007 2.28164e-006 2.1318e-006 -1.59028e-015 4.77083e-015 3.18055e-015 -0.0124901 0.00309302 0.00279847 4.77083e-015 1.59028e-015 -9.54166e-015 -1.59028e-015 4.77083e-015 3.18055e-015 3.36003e-006 1.77588e-006 -7.55499e-006 -1.59028e-015 -3.18055e-015 3.18055e-015 -4.99565 -10.3103 11.9396 -37.3558 -49.3496 -10.9017 97.984 -72.6188 69.152 47.1771 -9.28751 -19.1162 -1.36122e-006 -2.41055e-005 -9.40167e-006 -5.23961e-007 1.96862e-005 2.31253e-006 1.59028e-015 5.56597e-015 -0 -1.36122e-006 -2.41055e-005 -9.40167e-006 0.0129507 0.00229736 -8.35646e-005 -0 -1.59028e-015 -0 -1.36122e-006 -2.41055e-005 -9.40167e-006 0.0163197 0.00300383 -0.00087113 -1.59028e-015 9.93923e-016 -1.59028e-015 -1.36122e-006 -2.41055e-005 -9.40167e-006 0.0145787 0.0036666 -0.00325865 -1.59028e-015 -1.98785e-016 4.77083e-015 -1.36122e-006 -2.41055e-005 -9.40167e-006 -5.23961e-007 1.96862e-005 2.31253e-006 1.59028e-015 5.56597e-015 -0 -11.2727 -5.7347 -13.915 -169.987 68.5026 169.924 -2.19509 26.764 -5.38948 2.89186e-006 -6.85764e-006 -7.80045e-007 13.1863 -5.90473 13.1832 169.958 68.5295 -169.906 2.60686 27.2723 3.09196 1.39463e-006 -1.12122e-008 -9.87071e-007 
-51.8516 27.3226 14.9617 -6.894e-015 1.00189 180 -0.0248745 4.47823 -0.237777 -0.0311841 8.95653 -0.475789 -0.0311842 8.95656 -0.47579 -1.15124e-006 -12.1331 -3.45234e-006 4.85474e-009 -0.84071 -2.14933e-007 21.5658 -26.1669 -11.112 24.518 -57.8345 2.19967 -65.9747 -71.1647 -40.8788 -41.2713 -4.71518 0.36038 -8.70968e-007 -1.36761e-006 -2.13179e-006 -1.59028e-015 4.77083e-015 -9.54166e-015 -7.69142e-006 1.75824e-005 -2.3111e-006 -8.70968e-007 -1.36761e-006 -2.13179e-006 -0.0127567 0.00232825 9.00682e-005 4.2919e-006 -7.03674e-006 -1.25381e-005 -8.70968e-007 -1.36761e-006 -2.13179e-006 -0.0160078 0.00299331 0.000856462 -1.49433e-006 9.90859e-007 -2.41165e-006 -8.70968e-007 -1.36761e-006 -2.13179e-006 -0.0126053 0.00314171 0.00282653 -9.36022e-008 -5.32769e-006 -4.48329e-006 -8.70968e-007 -1.36761e-006 -2.13179e-006 -1.59028e-015 4.77083e-015 -9.54166e-015 -7.69142e-006 1.75824e-005 -2.3111e-006 -4.99565 -10.3103 11.9396 -37.3558 -49.3496 -10.9017 97.9841 -72.6188 69.1521 47.177 -9.28757 -19.1162 -1.59028e-015 -3.18055e-015 1.59028e-015 7.72434e-032 -2.78299e-015 1.59028e-015 -0 -7.95139e-016 -0 -1.59028e-015 -3.18055e-015 1.59028e-015 0.0129637 0.00233948 -8.53641e-005 3.18055e-015 -5.96354e-016 -1.59028e-015 -1.59028e-015 -3.18055e-015 1.59028e-015 0.0163545 0.00303905 -0.000871417 3.18055e-015 -7.95139e-016 -1.59028e-015 -1.59028e-015 -3.18055e-015 1.59028e-015 0.0145478 0.00367038 -0.00325302 3.14491e-031 -3.77691e-015 4.77083e-015 -1.59028e-015 -3.18055e-015 1.59028e-015 7.72434e-032 -2.78299e-015 1.59028e-015 -0 -7.95139e-016 -0 -11.323 -6.00584 -13.9931 -170.099 68.0412 170.002 -2.18621 26.7348 -5.40863 3.18661e-007 2.46e-008 2.81961e-007 13.2205 -6.17993 13.236 170.072 68.0702 -169.986 2.59779 27.2436 3.11109 -3.17912e-007 2.39306e-008 -2.82446e-007 
-51.8519 27.1122 15.1175 -6.894e-015 1.00189 180 -0.0248745 4.47823 -0.237777 -0.0311841 8.95653 -0.475789 -0.0311842 8.95656 -0.47579 -1.09076e-006 -12.6663 -3.85675e-006 -2.70349e-008 -1.55168 6.41116e-007 21.5658 -26.1669 -11.112 24.518 -57.8345 2.19967 -65.9747 -71.1647 -40.8788 -41.2713 -4.71518 0.36038 -8.70968e-007 -1.36761e-006 -2.13179e-006 -1.59028e-015 4.77083e-015 -9.54166e-015 -7.69142e-006 1.75824e-005 -2.3111e-006 -8.70968e-007 -1.36761e-006 -2.13179e-006 -0.0127567 0.00232825 9.00682e-005 4.2919e-006 -7.03674e-006 -1.25381e-005 -8.70968e-007 -1.36761e-006 -2.13179e-006 -0.0160078 0.00299331 0.000856462 -1.49433e-006 9.90859e-007 -2.41165e-006 -8.70968e-007 -1.36761e-006 -2.13179e-006 -0.0126053 0.00314171 0.00282653 -9.36022e-008 -5.32769e-006 -4.48329e-006 -8.70968e-007 -1.36761e-006 -2.13179e-006 -1.59028e-015 4.77083e-015 -9.54166e-015 -7.69142e-006 1.75824e-005 -2.3111e-006 -4.99565 -10.3103 11.9396 -37.3558 -49.3496 -10.9017 97.9841 -72.6188 69.1521 47.177 -9.28757 -19.1162 -1.59028e-015 -3.18055e-015 1.59028e-015 7.72434e-032 -2.78299e-015 1.59028e-015 -0 -7.95139e-016 -0 -1.59028e-015 -3.18055e-015 1.59028e-015 0.0129637 0.00233948 -8.53641e-005 3.18055e-015 -5.96354e-016 -1.59028e-015 -1.59028e-015 -3.18055e-015 1.59028e-015 0.0163545 0.00303905 -0.000871417 3.18055e-015 -7.95139e-016 -1.59028e-015 -1.59028e-015 -3.18055e-015 1.59028e-015 0.0145478 0.00367038 -0.00325302 3.14491e-031 -3.77691e-015 4.77083e-015 -1.59028e-015 -3.18055e-015 1.59028e-015 7.72434e-032 -2.78299e-015 1.59028e-015 -0 -7.95139e-016 -0 -11.3734 -6.2765 -14.0718 -170.207 67.5798 170.077 -2.17734 26.7054 -5.42788 -3.17875e-007 -2.44856e-008 -2.82837e-007 13.2548 -6.45491 13.2893 170.181 67.6106 -170.063 2.58876 27.2146 3.13033 -7.95139e-016 0 1.19271e-015 
